<?xml version="1.0" encoding="utf-8"?>
<!-- Generator: Adobe Illustrator 24.1.1, SVG Export Plug-In . SVG Version: 6.00 Build 0)  -->
<svg version="1.1" id="Layer_1" xmlns="http://www.w3.org/2000/svg" xmlns:xlink="http://www.w3.org/1999/xlink" x="0px" y="0px"
	 viewBox="0 0 512 512" style="enable-background:new 0 0 512 512;" xml:space="preserve">
<style type="text/css">
	.st0{fill:#5FCF80;}
</style>
<g>
	<path class="st0" d="M470.1,113c-6.4-3.2-20.8-9.6-36.7-19.2c-17.6-9.6-44.7,6.4-62.3,33.5l-30.4,51.1
		c-11.2,22.4-9.6,46.3,4.8,67.1l1.6,1.6c14.4,20.8,33.5,38.3,38.3,44.7c3.2,3.2,6.4,9.6,8,14.4c4.8,19.2-4.8,36.7-24,41.5
		c-17.6,4.8-36.7-6.4-43.1-24c-1.6-4.8-1.6-9.6-1.6-14.4c1.6-8-1.6-20.8-12.8-30.4c-11.2-12.8-33.5,11.2-39.9,33.5v1.6
		c-6.4,24-11.2,43.1-9.6,44.7c0,1.6,1.6,3.2,1.6,3.2c9.6,19.2,3.2,41.5-16,51.1c-19.2,9.6-43.1,3.2-52.7-16
		c-9.6-19.2-3.2-41.5,16-51.1c1.6,0,1.6-1.6,3.2-1.6c1.6,0,4.8-11.2,9.6-22.4c3.2-11.2,6.4-20.8,6.4-20.8c0-1.6,0-3.2,1.6-3.2
		l19.2-67.1L232,271.2c-3.2-8-6.4-8-16-1.6c-4.8,3.2-14.4,11.2-17.6,14.4c-8,6.4-14.4,17.6-17.6,24c-1.6,4.8-4.8,8-8,11.2
		c-14.4,12.8-36.7,9.6-47.9-4.8c-11.2-14.4-8-33.5,6.4-44.7c4.8-3.2,9.6-6.4,14.4-6.4c8-1.6,38.3-20.8,55.9-31.9
		c3.2-1.6,6.4-4.8,8-6.4l46.3-33.5l-41.5,22.4h-9.6c-12.8,1.6-28.8,3.2-32,8c-1.6,1.6-3.2,4.8-6.4,6.4c-12.8,6.4-32,3.2-43.1-9.6
		c-9.6-14.4-6.4-32,6.4-41.5c8-4.8,14.4-6.4,20.8-6.4c11.2,0,39.9,6.4,63.9,1.6l6.4-1.6c24-4.8,52.7-24,63.9-46.3
		c0,0,11.2-20.8,25.6-43.1c14.4-24,12.8-49.5-1.6-59.1L281.6,6c-14.4-8-36.7-8-51.1,0L41.9,109.8c-14.4,8-25.6,28.8-25.6,44.7V359
		c0,16,11.2,33.5,25.6,41.5L232,506c14.4,8,36.7,8,51.1,0l186.9-107c14.4-8,25.6-25.6,25.6-41.5V154.6
		C495.6,138.6,484.4,121,470.1,113z"/>
</g>
</svg>
